<svg xmlns="http://www.w3.org/2000/svg" xmlns:svg="http://www.w3.org/2000/svg" id="Layer_1" width="2000" height="512" x="0" y="0" version="1.1" viewBox="0 0 2000 512" xml:space="preserve"><metadata id="metadata45"/><path style="fill:#444;fill-opacity:1;stroke:#000;stroke-width:.84521616;stroke-opacity:1" id="path8" d="M 503.22848,468.20892 H 84.084378 c -3.955863,0 -7.160774,-3.18074 -7.160774,-7.10489 V 44.283546 c 0,-3.924154 3.204911,-7.104895 7.160774,-7.104895 3.955863,0 7.160773,3.180741 7.160773,7.104895 V 453.99913 H 503.22848 c 3.95586,0 7.16078,3.18074 7.16078,7.1049 0,3.92415 -3.20492,7.10489 -7.16078,7.10489 z"/><path style="fill:none;stroke:#c0c;stroke-width:16.09929085;stroke-linecap:round;stroke-linejoin:round;stroke-miterlimit:4;stroke-dasharray:none;stroke-opacity:1" id="path837" d="m 488.9097,405.486 c -91.63629,1.53354 -142.951,-60.93976 -162.84463,-126.99712 -10.64468,-35.34598 -33.18448,-108.12895 -78.81312,-108.809 -45.62865,-0.68006 -62.31566,67.28636 -73.97371,95.20789 -8.82921,21.14634 -35.94985,86.36715 -70.517,86.36715"/><path style="fill:none;stroke:#17f;stroke-width:16.09929085;stroke-linecap:round;stroke-linejoin:round;stroke-miterlimit:4;stroke-dasharray:none;stroke-opacity:1" id="path837-3" d="m 102.76121,351.25492 c 91.63629,1.53354 140.33511,-65.90472 168.37538,-129.03728 14.79274,-33.30582 35.09514,-76.62869 72.59103,-78.88653 33.88105,-2.04017 51.25417,37.36388 62.91222,65.28541 8.82921,21.14634 47.01133,105.40873 81.57848,105.40873"/><flowRoot id="flowRoot915" xml:space="preserve" style="font-style:normal;font-weight:400;font-size:64px;line-height:1.25;font-family:'DejaVu Sans';letter-spacing:0;word-spacing:0;fill:#000;fill-opacity:1;stroke:none;-inkscape-font-specification:'DejaVu Sans';font-stretch:normal;font-variant:normal"><flowRegion id="flowRegion917" style="-inkscape-font-specification:'DejaVu Sans';font-family:'DejaVu Sans';font-weight:400;font-style:normal;font-stretch:normal;font-variant:normal"><rect id="rect919" width="745.554" height="139.6" x="722.543" y="251.209" style="-inkscape-font-specification:'DejaVu Sans';font-family:'DejaVu Sans';font-weight:400;font-style:normal;font-stretch:normal;font-variant:normal"/></flowRegion><flowPara id="flowPara921" style="text-anchor:middle;text-align:center;line-height:3.25;-inkscape-font-specification:'DejaVu Sans';font-family:'DejaVu Sans';font-weight:400;font-style:normal;font-stretch:normal;font-variant:normal">PlotJuggler</flowPara></flowRoot><g style="font-style:normal;font-variant:normal;font-weight:400;font-stretch:normal;font-size:239.99998474px;line-height:1;font-family:'Noto Serif CJK KR';-inkscape-font-specification:'Noto Serif CJK KR';text-align:center;letter-spacing:0;word-spacing:0;text-anchor:middle;fill:#000;fill-opacity:1;stroke:none" id="flowRoot923" aria-label="PlotJuggler" transform="translate(10.738435,-15.340622)"><path style="font-style:normal;font-variant:normal;font-weight:400;font-stretch:normal;font-family:'URW Gothic L';-inkscape-font-specification:'URW Gothic L';fill:#c0c;fill-opacity:1;stroke:#c0c;stroke-opacity:1" id="path855" d="m 626.03594,316.67264 h 17.76 v -71.75999 h 34.07999 c 24,0 36.96,-3.12 47.76,-11.04 11.52,-8.4 17.76,-23.04 17.76,-40.8 0,-20.4 -7.68,-36.48 -21.12,-44.4 -11.04,-6.72 -24.48,-9.36 -47.27999,-9.36 h -48.96 z m 17.76,-87.83999 v -73.44 h 25.2 c 20.39999,0 33.11999,1.68 40.31999,5.28 10.32,5.28 16.08,16.56 16.08,32.4 0,13.68 -5.52,24.72 -14.64,29.76 -7.44,4.32 -17.76,6 -34.07999,6 z"/><path style="fill:#444;fill-opacity:1" id="path857" d="m 764.94717,316.67264 h 17.76 V 139.31265 h -17.76 z"/><path style="fill:#444;fill-opacity:1" id="path859" d="m 876.59967,182.27265 c -38.88,0 -68.88,29.52 -68.88,67.92 0,40.31999 29.52,69.59999 70.32,69.59999 38.4,0 66.71999,-29.04 66.71999,-68.39999 0,-40.08 -28.79999,-69.12 -68.15999,-69.12 z m 0,16.32 c 28.8,0 50.16,22.56 50.16,53.04 0,30 -20.64,51.83999 -49.2,51.83999 -30.24,0 -51.84,-22.07999 -51.84,-52.79999 0,-29.76 21.84,-52.08 50.88,-52.08 z"/><path style="fill:#444;fill-opacity:1" id="path861" d="m 985.87091,316.67264 h 17.75999 V 201.47265 h 29.52 v -16.08 h -29.52 v -46.08 h -17.75999 v 46.08 h -28.32 v 16.08 h 28.32 z"/><path style="font-style:normal;font-variant:normal;font-weight:400;font-stretch:normal;font-family:'URW Gothic L';-inkscape-font-specification:'URW Gothic L';fill:#17f;fill-opacity:1" id="path863" d="m 1133.6734,139.31265 h -17.76 v 121.92 c 0,28.07999 -10.08,42.47999 -29.28,42.47999 -17.52,0 -29.04,-11.04 -30.24,-29.03999 h -17.52 c 1.44,28.31999 19.2,45.35999 47.52,45.35999 18.72,0 32.88,-7.92 40.32,-23.04 4.08,-7.68 6.96,-22.79999 6.96,-35.75999 z"/><path style="fill:#444;fill-opacity:1" id="path865" d="m 1282.8146,185.39265 h -17.76 v 67.44 c 0,16.08 -2.4,26.16 -7.92,34.31999 -7.44,10.32 -19.2,16.32 -32.88,16.32 -14.64,0 -27.12,-6 -33.12,-16.56 -4.08,-6.71999 -6.24,-17.27999 -6.24,-30.71999 v -70.8 h -17.76 v 70.8 c 0,19.44 3.36,33.11999 10.32,42.71999 9.84,13.68 25.68,20.88 45.36,20.88 20.4,0 33.36,-7.2 42.24,-23.52 v 20.4 h 17.76 z"/><path style="fill:#444;fill-opacity:1" id="path867" d="m 1444.1959,185.39265 h -17.76 v 23.28 c -13.2,-18 -29.28,-26.4 -51.36,-26.4 -38.4,0 -67.2,29.76 -67.2,69.36 0,38.39999 30,68.15999 68.4,68.15999 23.52,0 39.84,-9.6 50.16,-29.76 v 8.88 c 0,12.96 -1.44,21.12 -5.28,29.28 -6.96,15.12 -22.8,23.76 -42.96,23.76 -14.64,0 -25.92,-4.32 -35.28,-13.2 -4.56,-4.08 -7.2,-7.92 -12.96,-18 h -17.28 c 9.6,30.72 32.88,47.52 66,47.52 22.8,0 42,-8.64 53.28,-23.52 8.88,-12 12.24,-25.92 12.24,-51.6 z m -68.16,13.2 c 28.32,0 50.4,22.32 50.4,50.88 0,30.72 -21.6,53.99999 -50.16,53.99999 -28.8,0 -50.4,-22.79999 -50.4,-53.27999 0,-30 21.12,-51.6 50.16,-51.6 z"/><path style="fill:#444;fill-opacity:1" id="path869" d="m 1605.9146,185.39265 h -17.76 v 23.28 c -13.2,-18 -29.28,-26.4 -51.36,-26.4 -38.4,0 -67.2,29.76 -67.2,69.36 0,38.39999 30,68.15999 68.4,68.15999 23.52,0 39.84,-9.6 50.16,-29.76 v 8.88 c 0,12.96 -1.44,21.12 -5.28,29.28 -6.96,15.12 -22.8,23.76 -42.96,23.76 -14.64,0 -25.92,-4.32 -35.28,-13.2 -4.56,-4.08 -7.2,-7.92 -12.96,-18 h -17.28 c 9.6,30.72 32.88,47.52 66,47.52 22.8,0 42,-8.64 53.28,-23.52 8.88,-12 12.24,-25.92 12.24,-51.6 z m -68.16,13.2 c 28.32,0 50.4,22.32 50.4,50.88 0,30.72 -21.6,53.99999 -50.16,53.99999 -28.8,0 -50.4,-22.79999 -50.4,-53.27999 0,-30 21.12,-51.6 50.16,-51.6 z"/><path style="fill:#444;fill-opacity:1" id="path871" d="m 1636.3533,316.67264 h 17.76 V 139.31265 h -17.76 z"/><path style="fill:#444;fill-opacity:1" id="path873" d="m 1815.6858,256.91265 c 0,-18 -2.4,-29.04 -8.88,-40.56 -11.76,-20.88 -34.56,-34.08 -59.52,-34.08 -38.16,0 -68.16,30 -68.16,68.16 0,38.87999 30.48,69.35999 69.36,69.35999 16.8,0 32.64,-6.24 44.64,-17.52 9.36,-8.88 15.6,-18 19.2,-28.79999 h -18.48 c -7.44,17.99999 -25.92,29.99999 -45.84,29.99999 -26.88,0 -49.68,-20.64 -51.12,-46.55999 z m -118.32,-16.08 c 4.8,-25.2 24.72,-42.24 49.68,-42.24 25.44,0 44.88,16.08 50.88,42.24 z"/><path style="fill:#444;fill-opacity:1" id="path875" d="m 1840.2596,316.67264 h 17.76 v -76.55999 c 0,-24.48 12.48,-37.92 37.2,-40.32 v -17.52 c -18.96,0.96 -30.24,7.44 -37.2,21.84 v -18.72 h -17.76 z"/></g><g style="font-style:normal;font-weight:400;font-size:74.66666412px;line-height:1;font-family:sans-serif;letter-spacing:0;word-spacing:0;fill:#000;fill-opacity:1;stroke:none" id="flowRoot852" aria-label="Fast. Intuitive. With Memes..." transform="translate(3.0681244,16.874684)"><path style="font-style:normal;font-variant:normal;font-weight:400;font-stretch:normal;font-family:'URW Gothic L';-inkscape-font-specification:'URW Gothic L';text-align:center;text-anchor:middle" id="path878" d="m 757.38041,435.49489 h 5.52534 v -25.23733 h 21.65333 v -5.00267 h -21.65333 v -19.936 h 22.47466 v -5.00266 h -28 z"/><path style="font-style:normal;font-variant:normal;font-weight:400;font-stretch:normal;font-family:'URW Gothic L';-inkscape-font-specification:'URW Gothic L';text-align:center;text-anchor:middle" id="path880" d="m 834.16574,394.65223 h -5.52533 v 7.24266 c -4.032,-5.67466 -9.03467,-8.21333 -16.128,-8.21333 -12.24533,0 -21.504,9.25867 -21.504,21.504 0,12.17067 9.33333,21.28 21.87733,21.28 6.944,0 11.424,-2.31467 15.75467,-8.13867 v 7.168 h 5.52533 z m -21.504,4.10666 c 8.96,0 15.97867,7.01867 15.97867,16.128 0,9.25867 -6.86933,16.50134 -15.68,16.50134 -9.25867,0 -16.352,-7.24267 -16.352,-16.576 0,-8.88534 7.168,-16.05334 16.05333,-16.05334 z"/><path style="font-style:normal;font-variant:normal;font-weight:400;font-stretch:normal;font-family:'URW Gothic L';-inkscape-font-specification:'URW Gothic L';text-align:center;text-anchor:middle" id="path882" d="m 840.25807,423.47356 c 0.0747,7.91467 5.30134,12.992 13.14134,12.992 7.31733,0 12.46933,-5.22667 12.46933,-12.69333 0,-5.00267 -2.31467,-8.43734 -7.09333,-10.45334 -6.19734,-2.53866 -6.496,-2.688 -7.69067,-3.28533 -2.53867,-1.26933 -3.73333,-2.98667 -3.73333,-5.376 0,-3.28533 2.61333,-5.89867 5.89866,-5.89867 3.584,0 5.67467,2.09067 5.97334,5.97334 h 5.6 c -0.224,-6.57067 -4.928,-11.05067 -11.49867,-11.05067 -6.64533,0 -11.57333,4.85333 -11.57333,11.49867 0,2.912 1.04533,5.45066 3.06133,7.31733 1.71733,1.568 1.792,1.568 7.54133,3.95733 2.464,0.97067 4.256,1.86667 5.30134,2.53867 1.64266,1.12 2.61333,3.06133 2.61333,5.30133 0,4.10667 -2.912,7.09334 -6.86933,7.09334 -4.55467,0 -7.392,-2.912 -7.69067,-7.91467 z"/><path style="font-style:normal;font-variant:normal;font-weight:400;font-stretch:normal;font-family:'URW Gothic L';-inkscape-font-specification:'URW Gothic L';text-align:center;text-anchor:middle" id="path884" d="m 877.64157,435.49489 h 5.52533 v -35.84 h 9.184 v -5.00266 h -9.184 v -14.336 h -5.52533 v 14.336 h -8.81067 v 5.00266 h 8.81067 z"/><path style="font-style:normal;font-variant:normal;font-weight:400;font-stretch:normal;font-family:'URW Gothic L';-inkscape-font-specification:'URW Gothic L';text-align:center;text-anchor:middle" id="path886" d="m 900.85124,435.49489 h 5.52533 v -9.408 h -5.52533 z"/><path style="font-style:normal;font-variant:normal;font-weight:400;font-stretch:normal;font-family:'URW Gothic L';-inkscape-font-specification:'URW Gothic L';text-align:center;text-anchor:middle" id="path888" d="m 940.40124,435.49489 h 5.52533 v -55.17866 h -5.52533 z"/><path style="font-style:normal;font-variant:normal;font-weight:400;font-stretch:normal;font-family:'URW Gothic L';-inkscape-font-specification:'URW Gothic L';text-align:center;text-anchor:middle" id="path890" d="m 956.34723,435.49489 h 5.52533 v -22.47466 c 0,-4.55467 0.59734,-6.944 2.16534,-9.25867 2.16533,-3.136 5.97333,-5.00267 10.304,-5.00267 4.032,0 7.69066,1.64267 9.93066,4.40534 1.94134,2.53866 2.688,5.52533 2.688,10.90133 v 21.42933 h 5.52534 v -21.42933 c 0,-6.86933 -0.97067,-10.528 -3.584,-14.03733 -3.21067,-4.032 -8.13867,-6.34667 -13.888,-6.34667 -5.376,0 -9.70667,2.09067 -13.14134,6.272 v -5.30133 h -5.52533 z"/><path style="font-style:normal;font-variant:normal;font-weight:400;font-stretch:normal;font-family:'URW Gothic L';-inkscape-font-specification:'URW Gothic L';text-align:center;text-anchor:middle" id="path892" d="m 1006.8499,435.49489 h 5.5253 v -35.84 h 9.184 v -5.00266 h -9.184 v -14.336 h -5.5253 v 14.336 h -8.81067 v 5.00266 h 8.81067 z"/><path style="font-style:normal;font-variant:normal;font-weight:400;font-stretch:normal;font-family:'URW Gothic L';-inkscape-font-specification:'URW Gothic L';text-align:center;text-anchor:middle" id="path894" d="m 1063.2116,394.65223 h -5.5254 v 20.98133 c 0,5.00267 -0.7466,8.13867 -2.464,10.67733 -2.3146,3.21067 -5.9733,5.07734 -10.2293,5.07734 -4.5547,0 -8.4373,-1.86667 -10.304,-5.152 -1.2693,-2.09067 -1.9413,-5.376 -1.9413,-9.55734 v -22.02666 h -5.5254 v 22.02666 c 0,6.048 1.0454,10.304 3.2107,13.29067 3.0613,4.256 7.9893,6.496 14.112,6.496 6.3467,0 10.3787,-2.24 13.1413,-7.31733 v 6.34666 h 5.5254 z"/><path style="font-style:normal;font-variant:normal;font-weight:400;font-stretch:normal;font-family:'URW Gothic L';-inkscape-font-specification:'URW Gothic L';text-align:center;text-anchor:middle" id="path896" d="m 1072.5764,435.49489 h 5.5253 v -40.84266 h -5.5253 z m 0,-45.77066 h 5.5253 v -9.408 h -5.5253 z"/><path style="font-style:normal;font-variant:normal;font-weight:400;font-stretch:normal;font-family:'URW Gothic L';-inkscape-font-specification:'URW Gothic L';text-align:center;text-anchor:middle" id="path898" d="m 1092.4541,435.49489 h 5.5253 v -35.84 h 9.184 v -5.00266 h -9.184 v -14.336 h -5.5253 v 14.336 h -8.8107 v 5.00266 h 8.8107 z"/><path style="font-style:normal;font-variant:normal;font-weight:400;font-stretch:normal;font-family:'URW Gothic L';-inkscape-font-specification:'URW Gothic L';text-align:center;text-anchor:middle" id="path900" d="m 1112.8264,435.49489 h 5.5253 v -40.84266 h -5.5253 z m 0,-45.77066 h 5.5253 v -9.408 h -5.5253 z"/><path style="font-style:normal;font-variant:normal;font-weight:400;font-stretch:normal;font-family:'URW Gothic L';-inkscape-font-specification:'URW Gothic L';text-align:center;text-anchor:middle" id="path902" d="m 1140.7681,435.49489 h 5.824 l 17.1733,-40.84266 h -5.6 l -14.6347,34.34666 -14.336,-34.34666 h -5.6 z"/><path style="font-style:normal;font-variant:normal;font-weight:400;font-stretch:normal;font-family:'URW Gothic L';-inkscape-font-specification:'URW Gothic L';text-align:center;text-anchor:middle" id="path904" d="m 1210.0354,416.90289 c 0,-5.6 -0.7467,-9.03466 -2.7627,-12.61866 -3.6586,-6.496 -10.752,-10.60267 -18.5173,-10.60267 -11.872,0 -21.2053,9.33333 -21.2053,21.20533 0,12.096 9.4826,21.57867 21.5786,21.57867 5.2267,0 10.1547,-1.94133 13.888,-5.45067 2.912,-2.76266 4.8534,-5.6 5.9734,-8.96 h -5.7494 c -2.3146,5.6 -8.064,9.33334 -14.2613,9.33334 -8.3627,0 -15.456,-6.42134 -15.904,-14.48534 z m -36.8107,-5.00266 c 1.4934,-7.84 7.6907,-13.14134 15.456,-13.14134 7.9147,0 13.9627,5.00267 15.8294,13.14134 z"/><path style="font-style:normal;font-variant:normal;font-weight:400;font-stretch:normal;font-family:'URW Gothic L';-inkscape-font-specification:'URW Gothic L';text-align:center;text-anchor:middle" id="path906" d="m 1220.5179,435.49489 h 5.5253 v -9.408 h -5.5253 z"/><path style="font-style:normal;font-variant:normal;font-weight:400;font-stretch:normal;font-family:'URW Gothic L';-inkscape-font-specification:'URW Gothic L';text-align:center;text-anchor:middle" id="path908" d="m 1270.8945,435.49489 h 7.168 l 12.096,-45.248 12.2454,45.248 h 7.0933 l 15.8293,-55.17866 h -5.6746 l -13.5894,48.01066 -13.216,-48.01066 h -5.2266 l -13.216,48.01066 -13.5894,-48.01066 h -5.6746 z"/><path style="font-style:normal;font-variant:normal;font-weight:400;font-stretch:normal;font-family:'URW Gothic L';-inkscape-font-specification:'URW Gothic L';text-align:center;text-anchor:middle" id="path910" d="m 1330.8472,435.49489 h 5.5254 v -40.84266 h -5.5254 z m 0,-45.77066 h 5.5254 v -9.408 h -5.5254 z"/><path style="font-style:normal;font-variant:normal;font-weight:400;font-stretch:normal;font-family:'URW Gothic L';-inkscape-font-specification:'URW Gothic L';text-align:center;text-anchor:middle" id="path912" d="m 1350.7249,435.49489 h 5.5253 v -35.84 h 9.184 v -5.00266 h -9.184 v -14.336 h -5.5253 v 14.336 h -8.8107 v 5.00266 h 8.8107 z"/><path style="font-style:normal;font-variant:normal;font-weight:400;font-stretch:normal;font-family:'URW Gothic L';-inkscape-font-specification:'URW Gothic L';text-align:center;text-anchor:middle" id="path914" d="m 1371.0972,435.49489 h 5.5254 v -22.4 c 0,-4.40533 0.5973,-7.01866 2.24,-9.25866 2.24,-3.21067 6.048,-5.07734 10.2293,-5.07734 3.9573,0 7.6907,1.71734 9.856,4.48 1.9413,2.38934 2.7627,5.52534 2.7627,10.304 v 21.952 h 5.5253 v -21.952 c 0,-6.12266 -1.12,-10.304 -3.5093,-13.51466 -3.0614,-4.032 -8.2134,-6.34667 -14.112,-6.34667 -5.6,0 -10.2294,2.24 -12.992,6.272 v -19.63733 h -5.5254 z"/><path style="font-style:normal;font-variant:normal;font-weight:400;font-stretch:normal;font-family:'URW Gothic L';-inkscape-font-specification:'URW Gothic L';text-align:center;text-anchor:middle" id="path916" d="m 1438.2762,435.49489 h 5.5254 v -49.13066 l 20.6826,49.13066 h 4.7787 l 20.7573,-49.13066 v 49.13066 h 5.5254 v -55.17866 h -8.5867 l -20.0107,46.96533 -20.0853,-46.96533 h -8.5867 z"/><path style="font-style:normal;font-variant:normal;font-weight:400;font-stretch:normal;font-family:'URW Gothic L';-inkscape-font-specification:'URW Gothic L';text-align:center;text-anchor:middle" id="path918" d="m 1546.9104,416.90289 c 0,-5.6 -0.7467,-9.03466 -2.7627,-12.61866 -3.6586,-6.496 -10.752,-10.60267 -18.5173,-10.60267 -11.872,0 -21.2053,9.33333 -21.2053,21.20533 0,12.096 9.4826,21.57867 21.5786,21.57867 5.2267,0 10.1547,-1.94133 13.888,-5.45067 2.912,-2.76266 4.8534,-5.6 5.9734,-8.96 h -5.7494 c -2.3146,5.6 -8.064,9.33334 -14.2613,9.33334 -8.3627,0 -15.456,-6.42134 -15.904,-14.48534 z m -36.8107,-5.00266 c 1.4934,-7.84 7.6907,-13.14134 15.456,-13.14134 7.9147,0 13.9627,5.00267 15.8294,13.14134 z"/><path style="font-style:normal;font-variant:normal;font-weight:400;font-stretch:normal;font-family:'URW Gothic L';-inkscape-font-specification:'URW Gothic L';text-align:center;text-anchor:middle" id="path920" d="m 1554.5556,435.49489 h 5.5253 v -23.81866 c 0,-8.13867 4.1067,-12.91734 10.976,-12.91734 3.36,0 6.496,1.344 8.512,3.73334 1.792,2.09066 2.5387,4.928 2.5387,9.184 v 23.81866 h 5.5253 v -23.66933 c 0,-3.95733 0.5973,-6.496 1.9413,-8.43733 1.9414,-2.98667 5.376,-4.704 9.2587,-4.704 3.584,0 6.72,1.41866 8.5867,3.88266 1.4933,2.09067 2.24,5.152 2.24,9.25867 v 23.66933 h 5.5253 v -24.26666 c 0,-5.376 -0.9707,-8.88534 -3.2853,-11.79734 -2.8374,-3.73333 -7.4667,-5.824 -12.768,-5.824 -6.3467,0 -10.752,2.464 -14.1867,7.91467 -3.2107,-5.45067 -7.2427,-7.84 -13.3653,-7.84 -5.152,0 -8.3627,1.568 -11.4987,5.67467 v -4.704 h -5.5253 z"/><path style="font-style:normal;font-variant:normal;font-weight:400;font-stretch:normal;font-family:'URW Gothic L';-inkscape-font-specification:'URW Gothic L';text-align:center;text-anchor:middle" id="path922" d="m 1665.4729,416.90289 c 0,-5.6 -0.7467,-9.03466 -2.7627,-12.61866 -3.6586,-6.496 -10.752,-10.60267 -18.5173,-10.60267 -11.872,0 -21.2053,9.33333 -21.2053,21.20533 0,12.096 9.4826,21.57867 21.5786,21.57867 5.2267,0 10.1547,-1.94133 13.888,-5.45067 2.912,-2.76266 4.8534,-5.6 5.9734,-8.96 h -5.7494 c -2.3146,5.6 -8.064,9.33334 -14.2613,9.33334 -8.3627,0 -15.456,-6.42134 -15.904,-14.48534 z m -36.8107,-5.00266 c 1.4934,-7.84 7.6907,-13.14134 15.456,-13.14134 7.9147,0 13.9627,5.00267 15.8294,13.14134 z"/><path style="font-style:normal;font-variant:normal;font-weight:400;font-stretch:normal;font-family:'URW Gothic L';-inkscape-font-specification:'URW Gothic L';text-align:center;text-anchor:middle" id="path924" d="m 1669.7581,423.47356 c 0.075,7.91467 5.3013,12.992 13.1413,12.992 7.3173,0 12.4693,-5.22667 12.4693,-12.69333 0,-5.00267 -2.3146,-8.43734 -7.0933,-10.45334 -6.1973,-2.53866 -6.496,-2.688 -7.6907,-3.28533 -2.5386,-1.26933 -3.7333,-2.98667 -3.7333,-5.376 0,-3.28533 2.6133,-5.89867 5.8987,-5.89867 3.584,0 5.6746,2.09067 5.9733,5.97334 h 5.6 c -0.224,-6.57067 -4.928,-11.05067 -11.4987,-11.05067 -6.6453,0 -11.5733,4.85333 -11.5733,11.49867 0,2.912 1.0453,5.45066 3.0613,7.31733 1.7174,1.568 1.792,1.568 7.5414,3.95733 2.464,0.97067 4.256,1.86667 5.3013,2.53867 1.6427,1.12 2.6133,3.06133 2.6133,5.30133 0,4.10667 -2.912,7.09334 -6.8693,7.09334 -4.5547,0 -7.392,-2.912 -7.6907,-7.91467 z"/><path style="font-style:normal;font-variant:normal;font-weight:400;font-stretch:normal;font-family:'URW Gothic L';-inkscape-font-specification:'URW Gothic L';text-align:center;text-anchor:middle" id="path926" d="m 1704.9762,435.49489 h 5.5253 v -9.408 h -5.5253 z"/><path style="font-style:normal;font-variant:normal;font-weight:400;font-stretch:normal;font-family:'URW Gothic L';-inkscape-font-specification:'URW Gothic L';text-align:center;text-anchor:middle" id="path928" d="m 1725.6846,435.49489 h 5.5253 v -9.408 h -5.5253 z"/><path id="path930" d="m 1746.8359,426.23448 h 7.6927 v 9.26041 h -7.6927 z"/></g></svg>