<svg xmlns="http://www.w3.org/2000/svg" xmlns:svg="http://www.w3.org/2000/svg" id="Capa_1" x="0" y="0" version="1.1" viewBox="0 0 212.974 212.974" xml:space="preserve" style="enable-background:new 0 0 212.974 212.974"><metadata id="metadata3896"/><path id="path3858" d="m 205.474,2.178 -49.494,0 -49.493,0 -49.494,0 -49.493,0 C 3.358,2.178 0,5.7988667 0,10.265106 L 0,60.482796 0,200.7089 c 0,4.46623 3.358,8.0871 7.5,8.0871 l 197.974,0 c 4.142,0 7.5,-3.62087 7.5,-8.0871 l 0,-190.443794 c 0,-4.4662393 -3.358,-8.087106 -7.5,-8.087106 z m -7.5,50.217692 -34.494,0 0,-34.043482 34.494,0 0,34.043482 z M 148.48,18.35221 l 0,34.043482 -34.493,0 0,-34.043482 34.493,0 z m -83.987,34.043482 0,-34.043482 34.493,0 0,34.043482 -34.493,0 z M 15,192.62071 15,60.482796 15,18.35221 l 34.493,0 0,42.130586 c 0,4.46624 3.358,8.087106 7.5,8.087106 l 49.493,0 49.493,0 41.994,0 0,124.051878 -182.973,0 z" style="fill:#000;fill-opacity:1;stroke:none;stroke-opacity:1"/><rect style="fill:#000" id="rect3905" width="75" height="25" x="70.841" y="119.121"/><rect style="fill:#000" id="rect3905-5" width="75" height="25" x="-170.158" y="95.341" transform="matrix(0,-1,1,0,0,0)"/></svg>