<svg xmlns="http://www.w3.org/2000/svg" xmlns:svg="http://www.w3.org/2000/svg" id="Capa_1" x="0" y="0" version="1.1" viewBox="0 0 512 512" xml:space="preserve" style="enable-background:new 0 0 512 512"><metadata id="metadata95"/><path id="path11" d="M 19.263125,454.70255 4.9198242,439.6359 129.08837,312.30861 c 3.3088,-3.38461 8.39085,-4.03244 12.39596,-1.59158 l 114.84607,70.1357 117.30485,-121.59757 c 3.74939,-3.89442 9.76309,-4.17047 13.83065,-0.63664 l 122.93915,106.10567 -13.1139,16.33992 -115.7681,-99.95193 -116.27956,120.53692 c -3.31961,3.43808 -8.47249,4.08468 -12.49921,1.59159 L 137.89941,333.10499 19.263125,454.70255 Z" style="fill:#ca00ff;fill-opacity:1;stroke:#ca00ff;stroke-width:1.2218163;stroke-opacity:1"/><path id="path21" d="M 18.961624,349.76974 5.1376864,332.51588 127.58985,207.1894 241.686,66.59006 c 2.6306,-3.183258 6.61275,-4.441535 10.31566,-3.263867 L 381.77743,107.0449 502.06322,28.001488 512.37889,48.053332 388.58604,129.66113 c -2.4553,1.64355 -5.40505,2.06297 -8.14929,1.16538 L 252.51788,87.691178 142.1355,223.74377 18.961624,349.76974 Z" style="fill:#0000fc;fill-opacity:1"/><rect style="fill:#000;fill-opacity:0" id="rect55" width="28.963" height="18.915" x="-2.169" y="18.915"/></svg>