<svg xmlns="http://www.w3.org/2000/svg" xmlns:svg="http://www.w3.org/2000/svg" id="svg2" width="512pt" height="512pt" version="1.1" viewBox="0 0 512 512"><metadata id="metadata12"/><path id="path4" d="m 62.115254,369.73559 c 13.035046,0 24.833069,-5.06615 33.55115,-13.20132 l 47.827426,23.16244 c -0.23983,1.88706 -0.59326,3.74153 -0.59326,5.68973 0,25.88911 21.74471,46.95254 48.47118,46.95254 26.72648,0 48.47119,-21.06343 48.47119,-46.95254 0,-7.22629 -1.83451,-13.99202 -4.85974,-20.11378 l 64.88069,-62.84794 c 6.31977,2.93046 13.30434,4.70748 20.76436,4.70748 26.72647,0 48.47119,-21.06343 48.47119,-46.95254 0,-4.87458 -0.98878,-9.48425 -2.41936,-13.90643 l 56.373,-40.9449 c 7.69144,4.97648 16.91022,7.89879 26.83167,7.89879 26.72647,0 48.47118,-21.06344 48.47118,-46.95255 0,-25.88911 -21.74471,-46.95254 -48.47118,-46.95254 -26.72648,0 -48.47119,21.06343 -48.47119,46.95254 0,4.8746 0.98878,9.48426 2.41935,13.90644 l -56.373,40.9449 c -7.69143,-4.97649 -16.91021,-7.89879 -26.83166,-7.89879 -26.72647,0 -48.47119,21.06343 -48.47119,46.95254 0,7.22629 1.8345,13.99202 4.85975,20.11379 l -64.88071,62.84793 c -6.31977,-2.93046 -13.30433,-4.70748 -20.76435,-4.70748 -13.03504,0 -24.83307,5.06614 -33.55115,13.20133 l -47.82742,-23.16244 c 0.23982,-1.88708 0.59326,-3.74154 0.59326,-5.68974 0,-25.88911 -21.744712,-46.95254 -48.471186,-46.95254 -26.726473,0 -48.471186,21.06343 -48.471186,46.95254 0,25.88911 21.744713,46.95254 48.471186,46.95254 z m 0,0"/></svg>