<svg xmlns="http://www.w3.org/2000/svg" xmlns:svg="http://www.w3.org/2000/svg" id="svg2" x="0" y="0" enable-background="new 0 0 1000 1000" version="1.1" viewBox="0 0 1000 1000" xml:space="preserve"><metadata id="metadata4">Svg Vector Icons : http://www.onlinewebfonts.com/icon</metadata><path id="path8" d="m 30.737811,188.11688 87.695099,0 0,-97.461477 -87.695099,0 z m 253.080879,240.2057 87.6951,0 0,-97.46146 -87.6951,0 z m 0,243.41519 87.6951,0 0,-97.46148 -87.6951,0 z m 0,243.41516 87.6951,0 0,-97.46145 -87.6951,0 z"/><path style="fill:none;fill-opacity:1;fill-rule:evenodd;stroke:#000;stroke-width:36.92891312;stroke-linecap:butt;stroke-linejoin:round;stroke-miterlimit:4;stroke-dasharray:none;stroke-opacity:1" id="path4141" d="M 73.221466,165.99816 70.190549,868.83652 303.57053,867.2208"/><path style="fill:none;fill-rule:evenodd;stroke:#000;stroke-width:36.92891312;stroke-linecap:butt;stroke-linejoin:miter;stroke-miterlimit:4;stroke-dasharray:none;stroke-opacity:1" id="path4145" d="M 295.99324,375.9667 70.190534,374.35098"/><path style="fill:none;fill-rule:evenodd;stroke:#000;stroke-width:36.92891312;stroke-linecap:butt;stroke-linejoin:miter;stroke-miterlimit:4;stroke-dasharray:none;stroke-opacity:1" id="path4145-6" d="M 295.23553,618.91869 69.432823,617.30298"/><path style="fill:none;fill-rule:evenodd;stroke:#000;stroke-width:125.55830383;stroke-linecap:round;stroke-linejoin:round;stroke-miterlimit:4;stroke-dasharray:none;stroke-opacity:1" id="path5314" d="m 240.49917,155.20698 399.22772,0"/><path style="fill:none;fill-rule:evenodd;stroke:#000;stroke-width:125.55830383;stroke-linecap:round;stroke-linejoin:round;stroke-miterlimit:4;stroke-dasharray:none;stroke-opacity:1" id="path5314-7" d="m 491.26185,383.83139 406.60325,0"/><path style="fill:none;fill-rule:evenodd;stroke:#000;stroke-width:125.55830383;stroke-linecap:round;stroke-linejoin:round;stroke-miterlimit:4;stroke-dasharray:none;stroke-opacity:1" id="path5314-3" d="m 491.26185,618.11085 406.60325,0"/><path style="fill:none;fill-rule:evenodd;stroke:#000;stroke-width:125.55830383;stroke-linecap:round;stroke-linejoin:round;stroke-miterlimit:4;stroke-dasharray:none;stroke-opacity:1" id="path5314-3-6" d="m 489.74641,849.15884 406.60325,0"/></svg>