<svg xmlns="http://www.w3.org/2000/svg" xmlns:svg="http://www.w3.org/2000/svg" id="Layer_1" x="0" y="0" version="1.1" viewBox="0 0 512 512" xml:space="preserve" style="enable-background:new 0 0 512 512"><metadata id="metadata45"/><path style="fill:#33333f;fill-opacity:.94117647;stroke-width:.9454999;stroke:#000;stroke-opacity:1" id="path8" d="M 503.92844,488.10159 H 38.896613 c -4.388949,0 -7.944732,-3.58754 -7.944732,-8.01356 V 9.9589269 c 0,-4.4260266 3.555783,-8.0135644 7.944732,-8.0135644 4.388949,0 7.944732,3.5875378 7.944732,8.0135644 V 472.07446 H 503.92844 c 4.38894,0 7.94474,3.58754 7.94474,8.01357 0,4.42602 -3.5558,8.01356 -7.94474,8.01356 z"/><path style="fill:none;stroke:#c0c;stroke-width:18.00944901;stroke-linecap:round;stroke-linejoin:round;stroke-miterlimit:4;stroke-dasharray:none;stroke-opacity:1" id="path837" d="M 488.04204,417.35682 C 386.37345,419.08649 329.44083,348.62326 307.36925,274.1176 295.55919,234.2511 270.55175,152.15966 219.9277,151.39263 c -50.62405,-0.76703 -69.13795,75.89185 -82.07232,107.38436 -9.79583,23.85082 -39.885623,97.41295 -78.237171,97.41295"/><path style="fill:none;stroke:#17f;stroke-width:18.00944901;stroke-linecap:round;stroke-linejoin:round;stroke-miterlimit:4;stroke-dasharray:none;stroke-opacity:1" id="path837-3" d="m 59.618173,356.18994 c 101.668597,1.72967 155.698947,-74.33351 186.809047,-145.54031 16.41225,-37.56541 38.93735,-86.429 80.53827,-88.9756 37.59033,-2.3011 56.86545,42.14248 69.79982,73.63499 9.79583,23.85082 52.15812,118.88982 90.50966,118.88982"/></svg>